# xmcd
#
# Track frame offsets:
#	150
#	15340
#	32255
#	50106
#	66813
#	80601
#	97984
#	117558
#	134154
#	149464
#	166697
#	183971
#	192439
#	207262
#	222788
#	242005
#	255433
#
# Disc length: 3625 seconds
#
# Revision: 1
# Processed by: cddbd v1.4PL0 Copyright (c) Steve Scherf et al.
# Submitted via: audiograbber 1.82.01
#
DISCID=ee0e2711
DTITLE=Various Artist - Saloon Tunes 62
DYEAR=2003
DGENRE=Country
TTITLE0=Gregory, Adam and Billy Ray Cyrus - When I Leave This House
TTITLE1=Paisley, Brad - Celebrity
TTITLE2=Worley, Darryl - Have You Forgotten
TTITLE3=Carter, Deana - You And Tequila
TTITLE4=Derailers - Genuine
TTITLE5=Bentley, Dierks - What Was I Thinking
TTITLE6=Emerson Drive - Only God (Could Stop Me Loving You)
TTITLE7=Hanson, Jennifer - This Far Gone
TTITLE8=Nichols, Joe - She Only Smokes When She Drinks
TTITLE9=Rimes, Leann - SUddenly
TTITLE10=Willis, Mark - When You Think Of Me
TTITLE11=Carrington, Rodney - Don''t Look Now
TTITLE12=Fox, Steve - Everything
TTITLE13=Keith, Toby and Willie Nelson - Beer For My Horses
TTITLE14=Adkins, Trace - Then They Do
TTITLE15=Byrd, Tracy - Truth About Men
TTITLE16=Gill, Vince - Someday
EXTD=
EXTT0=
EXTT1=
EXTT2=
EXTT3=
EXTT4=
EXTT5=
EXTT6=
EXTT7=
EXTT8=
EXTT9=
EXTT10=
EXTT11=
EXTT12=
EXTT13=
EXTT14=
EXTT15=
EXTT16=
PLAYORDER=
